<svg width="16.677246" height="14.673889" viewBox="0 0 16.6772 14.6739" fill="none" xmlns="http://www.w3.org/2000/svg" xmlns:xlink="http://www.w3.org/1999/xlink">
	<desc>
			Created with Pixso.
	</desc>
	<defs/>
	<path id="Vector" d="M14.9685 1.70886C14.5854 1.32562 14.1306 1.02161 13.6299 0.814209C13.1294 0.60675 12.5928 0.5 12.051 0.5C11.509 0.5 10.9727 0.60675 10.4719 0.814209C9.97144 1.02161 9.5166 1.32562 9.13354 1.70886L8.33838 2.50385L7.54346 1.70886C6.76978 0.93512 5.72021 0.500427 4.62598 0.500427C3.53174 0.500427 2.48218 0.93512 1.7085 1.70886C0.934814 2.48267 0.5 3.5321 0.5 4.62634C0.5 5.72064 0.934814 6.77008 1.7085 7.54388L2.50342 8.33887L8.33838 14.1739L14.1736 8.33887L14.9685 7.54388C15.3518 7.16083 15.6558 6.70599 15.863 6.20538C16.0706 5.70477 16.1772 5.16821 16.1772 4.62634C16.1772 4.08453 16.0706 3.54797 15.863 3.04736C15.6558 2.54675 15.3518 2.09192 14.9685 1.70886Z" fill="#3470FF" fill-opacity="1.000000" fill-rule="nonzero"/>
	<path id="Vector" d="M13.6299 0.814209C13.1294 0.60675 12.5928 0.5 12.051 0.5C11.509 0.5 10.9727 0.60675 10.4719 0.814209C9.97144 1.02161 9.5166 1.32562 9.13354 1.70886L8.33838 2.50385L7.54346 1.70886C6.76978 0.93512 5.72021 0.500427 4.62598 0.500427C3.53174 0.500427 2.48218 0.93512 1.7085 1.70886C0.934814 2.48267 0.5 3.5321 0.5 4.62634C0.5 5.72064 0.934814 6.77008 1.7085 7.54388L2.50342 8.33887L8.33838 14.1739L14.1736 8.33887L14.9685 7.54388C15.3518 7.16083 15.6558 6.70599 15.863 6.20538C16.0706 5.70477 16.1772 5.16821 16.1772 4.62634C16.1772 4.08453 16.0706 3.54797 15.863 3.04736C15.6558 2.54675 15.3518 2.09192 14.9685 1.70886C14.5854 1.32562 14.1306 1.02161 13.6299 0.814209Z" stroke="#3470FF" stroke-opacity="1.000000" stroke-width="1.000000" stroke-linejoin="round"/>
</svg>
