<svg width="17.177246" height="15.173889" viewBox="0 0 17.1772 15.1739" fill="none" xmlns="http://www.w3.org/2000/svg" xmlns:xlink="http://www.w3.org/1999/xlink">
	<desc>
			Created with Pixso.
	</desc>
	<defs/>
	<path id="Vector" d="M13.8799 1.06421C13.3794 0.85675 12.8428 0.75 12.301 0.75C11.759 0.75 11.2227 0.85675 10.7219 1.06421C10.2214 1.27161 9.7666 1.57562 9.38354 1.95886L8.58838 2.75385L7.79346 1.95886C7.01978 1.18512 5.97021 0.750427 4.87598 0.750427C3.78174 0.750427 2.73218 1.18512 1.9585 1.95886C1.18481 2.73267 0.75 3.7821 0.75 4.87634C0.75 5.97064 1.18481 7.02008 1.9585 7.79388L2.75342 8.58887L8.58838 14.4239L14.4236 8.58887L15.2185 7.79388C15.6018 7.41083 15.9058 6.95599 16.113 6.45538C16.3206 5.95477 16.4272 5.41821 16.4272 4.87634C16.4272 4.33453 16.3206 3.79797 16.113 3.29736C15.9058 2.79675 15.6018 2.34192 15.2185 1.95886C14.8354 1.57562 14.3806 1.27161 13.8799 1.06421Z" stroke="#FFFFFF" stroke-opacity="0.800000" stroke-width="1.500000" stroke-linejoin="round"/>
</svg>
